<svg version="1.1" viewBox="0.0 0.0 960.0 224.64041994750656" fill="none" stroke="none" stroke-linecap="square" stroke-miterlimit="10" xmlns:xlink="http://www.w3.org/1999/xlink" xmlns="http://www.w3.org/2000/svg"><clipPath id="g252bf09ed8f_1_0.0"><path d="m0 0l960.0 0l0 224.64043l-960.0 0l0 -224.64043z" clip-rule="nonzero"/></clipPath><g clip-path="url(#g252bf09ed8f_1_0.0)"><path fill="#000000" fill-opacity="0.0" d="m0 0l960.0 0l0 224.64043l-960.0 0z" fill-rule="evenodd"/><path fill="#000000" fill-opacity="0.0" d="m0 0l960.0 0l0 150.3622l-960.0 0z" fill-rule="evenodd"/><path fill="#666666" d="m207.98929 125.48l0 0l0 -75.828125q0 -4.734375 2.421875 -8.734375q2.421875 -4.0 6.421875 -6.421875q4.015625 -2.4375 8.859375 -2.4375l26.9375 0l0 18.6875l-26.078125 0q0 0 0 0q0 0 0 0l0 4.359375l26.078125 0l0 18.5625l-26.078125 0l0 51.8125l-18.5625 0zm53.25937 0l0 0l0 -70.375l18.5625 0l0 70.375l-18.5625 0zm0 -74.734375l0 0l0 -18.6875l18.5625 0l0 18.6875l-18.5625 0zm31.424133 74.734375l0 0l0 -52.78125q0 -4.734375 2.421875 -8.734375q2.421875 -4.0 6.421875 -6.421875q4.015625 -2.4375 8.859375 -2.4375l38.828125 0l0 18.5625l-37.96875 0q0 0 0 0q0 0 0 0l0 51.8125l-18.5625 0zm83.354614 0q-4.734375 0 -8.75 -2.421875q-4.0 -2.4375 -6.421875 -6.4375q-2.421875 -4.0 -2.421875 -8.734375l0 -3.515625l18.5625 0l0 2.546875q0 0 0 0q0 0 0 0l34.203125 0q0 0 0 0q0 0 0 0l0 -7.28125q0 0 0 0q0 0 0 0l-35.171875 0q-4.734375 0 -8.75 -2.421875q-4.0 -2.4375 -6.421875 -6.4375q-2.421875 -4.0 -2.421875 -8.734375l0 -9.34375q0 -4.734375 2.421875 -8.734375q2.421875 -4.0 6.421875 -6.421875q4.015625 -2.4375 8.75 -2.4375l36.15625 0q4.84375 0 8.84375 2.4375q4.015625 2.421875 6.4375 6.421875q2.421875 4.0 2.421875 8.734375l0 3.515625l-18.6875 0l0 -2.546875q0 0 0 0q0 0 0 0l-34.203125 0q0 0 0 0q0 0 0 0l0 7.28125q0 0 0 0q0 0 0 0l35.1875 0q4.84375 0 8.84375 2.4375q4.015625 2.421875 6.4375 6.421875q2.421875 4.0 2.421875 8.734375l0 9.34375q0 4.734375 -2.421875 8.734375q-2.421875 4.0 -6.4375 6.4375q-4.0 2.421875 -8.84375 2.421875l-36.15625 0l0 0zm83.94986 0q-4.84375 0 -8.859375 -2.421875q-4.0 -2.4375 -6.421875 -6.4375q-2.421875 -4.0 -2.421875 -8.734375l0 -73.640625l18.5625 0l0 20.859375l26.078125 0l0 18.5625l-26.078125 0l0 33.25q0 0 0 0q0 0 0 0l26.078125 0l0 18.5625l-26.9375 0l0 0z" fill-rule="nonzero"/><path fill="#80cc28" d="m497.3525 125.48l0 -87.359375l19.40628 0l29.609375 35.3125l29.484375 -35.3125l19.53125 0l0 87.359375l-18.921875 0l0 -58.59375l-30.09375 35.90625l-30.21875 -35.796875l0 58.484375l-18.796906 0zm128.48856 0q-4.859375 0 -8.859375 -2.421875q-4.0 -2.4375 -6.375 -6.4375q-2.359375 -4.0 -2.359375 -8.734375l0 -26.9375l52.78125 0l0 -7.28125q0 0 0 0q0 0 0 0l-52.78125 0l0 -18.5625l53.75 0q4.84375 0 8.84375 2.4375q4.015625 2.421875 6.375 6.421875q2.375 4.0 2.375 8.734375l0 52.78125l-53.75 0zm0.96875 -18.5625l34.21875 0l0 -9.703125l-34.21875 0l0 9.703125q0 0 0 0q0 0 0 0zm65.63916 18.5625l0 0l0 -70.375l18.5625 0l0 70.375l-18.5625 0zm0 -74.734375l0 0l0 -18.6875l18.5625 0l0 18.6875l-18.5625 0zm49.017883 74.734375q-4.734375 0 -8.75 -2.421875q-4.0 -2.4375 -6.421875 -6.4375q-2.421875 -4.0 -2.421875 -8.734375l0 -75.953125l18.6875 0l0 74.984375q0 0 0 0q0 0 0 0l14.1875 0l0 18.5625l-15.28125 0l0 0z" fill-rule="nonzero"/><path fill="#000000" fill-opacity="0.0" d="m0 161.61679l960.0 0l0 63.023636l-960.0 0z" fill-rule="evenodd"/><path fill="#666666" d="m158.37006 204.30792q-3.875 0 -6.859375 -1.703125q-2.96875 -1.703125 -4.6875 -4.703125q-1.703125 -3.0 -1.703125 -6.890625q0 -3.9375 1.703125 -6.9375q1.71875 -3.0 4.6875 -4.703125q2.984375 -1.703125 6.859375 -1.703125q3.84375 0 6.8125 1.703125q2.984375 1.703125 4.6875 4.703125q1.703125 3.0 1.703125 6.9375q0 3.890625 -1.6875 6.890625q-1.671875 3.0 -4.65625 4.703125q-2.96875 1.703125 -6.859375 1.703125zm0 -4.3125q2.5 0 4.421875 -1.15625q1.921875 -1.15625 3.0 -3.171875q1.078125 -2.015625 1.078125 -4.65625q0 -2.640625 -1.078125 -4.671875q-1.078125 -2.046875 -3.0 -3.1875q-1.921875 -1.15625 -4.421875 -1.15625q-2.484375 0 -4.40625 1.15625q-1.921875 1.140625 -3.03125 3.1875q-1.09375 2.03125 -1.09375 4.671875q0 2.640625 1.09375 4.65625q1.109375 2.015625 3.03125 3.171875q1.921875 1.15625 4.40625 1.15625zm22.946945 15.359375q-1.046875 0 -1.75 -0.703125q-0.703125 -0.6875 -0.703125 -1.75l0 -21.890625q0.0625 -3.78125 1.78125 -6.796875q1.734375 -3.03125 4.703125 -4.78125q2.984375 -1.765625 6.71875 -1.765625q3.796875 0 6.765625 1.765625q2.984375 1.75 4.734375 4.78125q1.75 3.015625 1.75 6.796875q0 3.796875 -1.609375 6.796875q-1.609375 3.0 -4.390625 4.75q-2.78125 1.75 -6.28125 1.75q-2.84375 0 -5.21875 -1.171875q-2.375 -1.171875 -4.046875 -3.1875l0 12.953125q0 1.0625 -0.671875 1.75q-0.671875 0.703125 -1.78125 0.703125zm10.75 -15.359375q2.453125 0 4.375 -1.171875q1.921875 -1.1875 3.046875 -3.21875q1.125 -2.046875 1.125 -4.59375q0 -2.59375 -1.125 -4.625q-1.125 -2.046875 -3.046875 -3.21875q-1.921875 -1.171875 -4.375 -1.171875q-2.390625 0 -4.34375 1.171875q-1.9375 1.171875 -3.046875 3.21875q-1.09375 2.03125 -1.09375 4.625q0 2.546875 1.09375 4.59375q1.109375 2.03125 3.046875 3.21875q1.953125 1.171875 4.34375 1.171875zm32.88469 4.3125q-3.984375 0 -7.078125 -1.703125q-3.09375 -1.703125 -4.859375 -4.703125q-1.75 -3.0 -1.75 -6.890625q0 -3.9375 1.65625 -6.9375q1.65625 -3.0 4.578125 -4.703125q2.9375 -1.703125 6.734375 -1.703125q3.75 0 6.4375 1.65625q2.6875 1.65625 4.09375 4.5625q1.421875 2.90625 1.421875 6.703125q0 0.90625 -0.625 1.515625q-0.625 0.59375 -1.578125 0.59375l-19.34375 0l0 -3.84375l19.1875 0l-1.96875 1.34375q-0.046875 -2.390625 -0.953125 -4.28125q-0.90625 -1.90625 -2.59375 -3.0q-1.671875 -1.109375 -4.078125 -1.109375q-2.734375 0 -4.6875 1.203125q-1.9375 1.1875 -2.953125 3.28125q-1.0 2.078125 -1.0 4.71875q0 2.640625 1.203125 4.703125q1.203125 2.0625 3.3125 3.265625q2.109375 1.203125 4.84375 1.203125q1.484375 0 3.046875 -0.546875q1.5625 -0.5625 2.515625 -1.28125q0.71875 -0.515625 1.5625 -0.546875q0.84375 -0.03125 1.46875 0.5q0.8125 0.71875 0.859375 1.59375q0.046875 0.859375 -0.765625 1.484375q-1.625 1.296875 -4.0625 2.109375q-2.421875 0.8125 -4.625 0.8125zm39.651825 -0.140625q-1.0625 0 -1.765625 -0.6875q-0.6875 -0.703125 -0.6875 -1.765625l0 -11.796875q0 -2.734375 -1.015625 -4.46875q-1.0 -1.734375 -2.703125 -2.5625q-1.703125 -0.84375 -3.9062653 -0.84375q-2.015625 0 -3.65625 0.8125q-1.625 0.8125 -2.59375 2.1875q-0.953125 1.359375 -0.953125 3.140625l-3.03125 0q0 -3.015625 1.46875 -5.390625q1.46875 -2.390625 4.0 -3.78125q2.546875 -1.390625 5.71875 -1.390625q3.3125153 0 5.9218903 1.421875q2.625 1.421875 4.125 4.15625q1.515625 2.734375 1.515625 6.71875l0 11.796875q0 1.0625 -0.703125 1.765625q-0.6875 0.6875 -1.734375 0.6875zm-19.73439 0q-1.046875 0 -1.75 -0.6875q-0.703125 -0.703125 -0.703125 -1.765625l0 -21.40625q0 -1.09375 0.703125 -1.765625q0.703125 -0.671875 1.75 -0.671875q1.109375 0 1.78125 0.671875q0.671875 0.671875 0.671875 1.765625l0 21.40625q0 1.0625 -0.671875 1.765625q-0.671875 0.6875 -1.78125 0.6875zm47.19072 -0.046875q-0.921875 0 -1.640625 -0.671875q-0.71875 -0.671875 -0.71875 -1.78125l0 -23.65625q0 -3.453125 1.359375 -6.0q1.375 -2.546875 3.828125 -3.953125q2.453125 -1.421875 5.65625 -1.421875q1.0625 0 1.75 0.625q0.703125 0.625 0.703125 1.578125q0 0.90625 -0.703125 1.5625q-0.6875 0.640625 -1.75 0.640625q-1.765625 0 -3.109375 0.828125q-1.34375 0.8125 -2.09375 2.25q-0.734375 1.4375 -0.734375 3.40625l0 24.140625q0 1.109375 -0.671875 1.78125q-0.671875 0.671875 -1.875 0.671875zm-4.421875 -21.171875q-1.0 0 -1.625 -0.5625q-0.625 -0.578125 -0.625 -1.453125q0 -0.953125 0.625 -1.53125q0.625 -0.578125 1.625 -0.578125l11.859375 0q1.0 0 1.625 0.578125q0.625 0.578125 0.625 1.53125q0 0.875 -0.625 1.453125q-0.625 0.5625 -1.625 0.5625l-11.859375 0zm30.140411 21.359375q-3.875 0 -6.859375 -1.703125q-2.96875 -1.703125 -4.6875 -4.703125q-1.703125 -3.0 -1.703125 -6.890625q0 -3.9375 1.703125 -6.9375q1.71875 -3.0 4.6875 -4.703125q2.984375 -1.703125 6.859375 -1.703125q3.84375 0 6.8125 1.703125q2.984375 1.703125 4.6875 4.703125q1.703125 3.0 1.703125 6.9375q0 3.890625 -1.6875 6.890625q-1.671875 3.0 -4.65625 4.703125q-2.96875 1.703125 -6.859375 1.703125zm0 -4.3125q2.5 0 4.421875 -1.15625q1.921875 -1.15625 3.0 -3.171875q1.078125 -2.015625 1.078125 -4.65625q0 -2.640625 -1.078125 -4.671875q-1.078125 -2.046875 -3.0 -3.1875q-1.921875 -1.15625 -4.421875 -1.15625q-2.484375 0 -4.40625 1.15625q-1.921875 1.140625 -3.03125 3.1875q-1.09375 2.03125 -1.09375 4.671875q0 2.640625 1.09375 4.65625q1.109375 2.015625 3.03125 3.171875q1.921875 1.15625 4.40625 1.15625zm22.85321 -12.296875q0 -2.875 1.40625 -5.15625q1.421875 -2.28125 3.8125 -3.625q2.40625 -1.34375 5.296875 -1.34375q2.875 0 4.28125 0.9375q1.421875 0.9375 1.09375 2.234375q-0.140625 0.671875 -0.5625 1.03125q-0.40625 0.359375 -0.9375 0.453125q-0.515625 0.09375 -1.140625 -0.046875q-3.078125 -0.625 -5.53125 -0.09375q-2.4375 0.53125 -3.859375 1.96875q-1.40625 1.4375 -1.40625 3.640625l-2.453125 0zm0.046875 16.421875q-1.15625 0 -1.78125 -0.59375q-0.625 -0.609375 -0.625 -1.8125l0 -21.453125q0 -1.15625 0.625 -1.765625q0.625 -0.625 1.78125 -0.625q1.203125 0 1.796875 0.59375q0.609375 0.59375 0.609375 1.796875l0 21.453125q0 1.15625 -0.609375 1.78125q-0.59375 0.625 -1.796875 0.625zm46.89206 0.1875q-3.734375 0 -6.734375 -1.75q-3.0 -1.75 -4.765625 -4.765625q-1.75 -3.03125 -1.75 -6.828125q0 -3.78125 1.609375 -6.78125q1.609375 -3.0 4.390625 -4.75q2.796875 -1.765625 6.296875 -1.765625q2.828125 0 5.21875 1.1875q2.40625 1.171875 4.046875 3.1875l0 -12.96875q0 -1.09375 0.6875 -1.765625q0.703125 -0.671875 1.75 -0.671875q1.109375 0 1.78125 0.671875q0.671875 0.671875 0.671875 1.765625l0 21.890625q0 3.796875 -1.75 6.828125q-1.75 3.015625 -4.734375 4.765625q-2.96875 1.75 -6.71875 1.75zm0 -4.3125q2.453125 0 4.375 -1.171875q1.921875 -1.1875 3.015625 -3.25q1.109375 -2.0625 1.109375 -4.609375q0 -2.59375 -1.109375 -4.609375q-1.09375 -2.015625 -3.015625 -3.1875q-1.921875 -1.171875 -4.375 -1.171875q-2.390625 0 -4.34375 1.171875q-1.9375 1.171875 -3.0625 3.1875q-1.125 2.015625 -1.125 4.609375q0 2.546875 1.125 4.609375q1.125 2.0625 3.0625 3.25q1.953125 1.171875 4.34375 1.171875zm34.18155 4.3125q-3.984375 0 -7.078125 -1.703125q-3.09375 -1.703125 -4.859375 -4.703125q-1.75 -3.0 -1.75 -6.890625q0 -3.9375 1.65625 -6.9375q1.65625 -3.0 4.578125 -4.703125q2.9375 -1.703125 6.734375 -1.703125q3.75 0 6.4375 1.65625q2.6875 1.65625 4.09375 4.5625q1.421875 2.90625 1.421875 6.703125q0 0.90625 -0.625 1.515625q-0.625 0.59375 -1.578125 0.59375l-19.34375 0l0 -3.84375l19.1875 0l-1.96875 1.34375q-0.046875 -2.390625 -0.953125 -4.28125q-0.90625 -1.90625 -2.59375 -3.0q-1.671875 -1.109375 -4.078125 -1.109375q-2.734375 0 -4.6875 1.203125q-1.9375 1.1875 -2.953125 3.28125q-1.0 2.078125 -1.0 4.71875q0 2.640625 1.203125 4.703125q1.203125 2.0625 3.3125 3.265625q2.109375 1.203125 4.84375 1.203125q1.484375 0 3.046875 -0.546875q1.5625 -0.5625 2.515625 -1.28125q0.71875 -0.515625 1.5625 -0.546875q0.84375 -0.03125 1.46875 0.5q0.8125 0.71875 0.859375 1.59375q0.046875 0.859375 -0.765625 1.484375q-1.625 1.296875 -4.0625 2.109375q-2.421875 0.8125 -4.625 0.8125zm25.394928 -0.234375q-1.484375 0 -2.3125 -1.578125l-10.171875 -21.46875q-0.375 -0.8125 -0.078125 -1.59375q0.3125 -0.796875 1.234375 -1.234375q0.8125 -0.4375 1.65625 -0.140625q0.84375 0.28125 1.265625 1.109375l9.5 20.484375l-2.296875 0l9.40625 -20.484375q0.4375 -0.828125 1.3125 -1.109375q0.890625 -0.296875 1.8125 0.140625q0.859375 0.390625 1.140625 1.203125q0.296875 0.8125 -0.09375 1.625l-10.171875 21.46875q-0.71875 1.578125 -2.203125 1.578125zm28.79715 0.234375q-3.984375 0 -7.078125 -1.703125q-3.09375 -1.703125 -4.859375 -4.703125q-1.75 -3.0 -1.75 -6.890625q0 -3.9375 1.65625 -6.9375q1.65625 -3.0 4.578125 -4.703125q2.9375 -1.703125 6.734375 -1.703125q3.75 0 6.4375 1.65625q2.6875 1.65625 4.09375 4.5625q1.421875 2.90625 1.421875 6.703125q0 0.90625 -0.625 1.515625q-0.625 0.59375 -1.578125 0.59375l-19.34375 0l0 -3.84375l19.1875 0l-1.96875 1.34375q-0.046875 -2.390625 -0.953125 -4.28125q-0.90625 -1.90625 -2.59375 -3.0q-1.671875 -1.109375 -4.078125 -1.109375q-2.734375 0 -4.6875 1.203125q-1.9375 1.1875 -2.953125 3.28125q-1.0 2.078125 -1.0 4.71875q0 2.640625 1.203125 4.703125q1.203125 2.0625 3.3125 3.265625q2.109375 1.203125 4.84375 1.203125q1.484375 0 3.046875 -0.546875q1.5625 -0.5625 2.515625 -1.28125q0.71875 -0.515625 1.5625 -0.546875q0.84375 -0.03125 1.46875 0.5q0.8125 0.71875 0.859375 1.59375q0.046875 0.859375 -0.765625 1.484375q-1.625 1.296875 -4.0625 2.109375q-2.421875 0.8125 -4.625 0.8125zm23.714294 -0.1875q-2.109375 0 -3.75 -1.140625q-1.625 -1.15625 -2.546875 -3.140625q-0.90625 -2.0 -0.90625 -4.59375l0 -26.21875q0 -1.046875 0.671875 -1.71875q0.671875 -0.671875 1.734375 -0.671875q1.046875 0 1.71875 0.671875q0.671875 0.671875 0.671875 1.71875l0 26.21875q0 1.765625 0.671875 2.921875q0.671875 1.15625 1.734375 1.15625l1.203125 0q0.953125 0 1.546875 0.671875q0.609375 0.671875 0.609375 1.71875q0 1.0625 -0.921875 1.734375q-0.90625 0.671875 -2.34375 0.671875l-0.09375 0zm18.616272 0.1875q-3.875 0 -6.859375 -1.703125q-2.96875 -1.703125 -4.6875 -4.703125q-1.703125 -3.0 -1.703125 -6.890625q0 -3.9375 1.703125 -6.9375q1.71875 -3.0 4.6875 -4.703125q2.984375 -1.703125 6.859375 -1.703125q3.84375 0 6.8125 1.703125q2.984375 1.703125 4.6875 4.703125q1.703125 3.0 1.703125 6.9375q0 3.890625 -1.6875 6.890625q-1.671875 3.0 -4.65625 4.703125q-2.96875 1.703125 -6.859375 1.703125zm0 -4.3125q2.5 0 4.421875 -1.15625q1.921875 -1.15625 3.0 -3.171875q1.078125 -2.015625 1.078125 -4.65625q0 -2.640625 -1.078125 -4.671875q-1.078125 -2.046875 -3.0 -3.1875q-1.921875 -1.15625 -4.421875 -1.15625q-2.484375 0 -4.40625 1.15625q-1.921875 1.140625 -3.03125 3.1875q-1.09375 2.03125 -1.09375 4.671875q0 2.640625 1.09375 4.65625q1.109375 2.015625 3.03125 3.171875q1.921875 1.15625 4.40625 1.15625zm22.94696 15.359375q-1.046875 0 -1.75 -0.703125q-0.703125 -0.6875 -0.703125 -1.75l0 -21.890625q0.0625 -3.78125 1.78125 -6.796875q1.734375 -3.03125 4.703125 -4.78125q2.984375 -1.765625 6.71875 -1.765625q3.796875 0 6.765625 1.765625q2.984375 1.75 4.734375 4.78125q1.75 3.015625 1.75 6.796875q0 3.796875 -1.609375 6.796875q-1.609375 3.0 -4.390625 4.75q-2.78125 1.75 -6.28125 1.75q-2.84375 0 -5.21875 -1.171875q-2.375 -1.171875 -4.046875 -3.1875l0 12.953125q0 1.0625 -0.671875 1.75q-0.671875 0.703125 -1.78125 0.703125zm10.75 -15.359375q2.453125 0 4.375 -1.171875q1.921875 -1.1875 3.046875 -3.21875q1.125 -2.046875 1.125 -4.59375q0 -2.59375 -1.125 -4.625q-1.125 -2.046875 -3.046875 -3.21875q-1.921875 -1.171875 -4.375 -1.171875q-2.390625 0 -4.34375 1.171875q-1.9375 1.171875 -3.046875 3.21875q-1.09375 2.03125 -1.09375 4.625q0 2.546875 1.09375 4.59375q1.109375 2.03125 3.046875 3.21875q1.953125 1.171875 4.34375 1.171875zm55.009705 4.171875q-1.046875 0 -1.75 -0.6875q-0.6875 -0.703125 -0.6875 -1.765625l0 -13.71875q0 -3.03125 -1.5 -4.484375q-1.484375 -1.46875 -3.890625 -1.46875q-2.484375 0 -4.09375 1.734375q-1.609375 1.71875 -1.609375 4.40625l-3.984375 0q0 -3.125 1.34375 -5.5q1.34375 -2.375 3.765625 -3.71875q2.421875 -1.34375 5.546875 -1.34375q2.734375 0 4.84375 1.203125q2.109375 1.203125 3.28125 3.53125q1.1875 2.328125 1.1875 5.640625l0 13.71875q0 1.0625 -0.671875 1.765625q-0.671875 0.6875 -1.78125 0.6875zm-32.015625 0q-1.046875 0 -1.75 -0.6875q-0.703125 -0.703125 -0.703125 -1.765625l0 -21.359375q0 -1.09375 0.703125 -1.765625q0.703125 -0.671875 1.75 -0.671875q1.109375 0 1.78125 0.671875q0.671875 0.671875 0.671875 1.765625l0 21.359375q0 1.0625 -0.671875 1.765625q-0.671875 0.6875 -1.78125 0.6875zm16.03125 0q-1.046875 0 -1.75 -0.6875q-0.6875 -0.703125 -0.6875 -1.765625l0 -13.71875q0 -3.03125 -1.5 -4.484375q-1.484375 -1.46875 -3.890625 -1.46875q-2.484375 0 -4.125 1.734375q-1.625 1.71875 -1.625 4.40625l-3.03125 0q0 -3.125 1.25 -5.5q1.25 -2.375 3.453125 -3.71875q2.21875 -1.34375 5.046875 -1.34375q2.734375 0 4.84375 1.203125q2.109375 1.203125 3.28125 3.53125q1.1875 2.328125 1.1875 5.640625l0 13.71875q0 1.0625 -0.671875 1.765625q-0.671875 0.6875 -1.78125 0.6875zm38.883484 0.140625q-3.984375 0 -7.078125 -1.703125q-3.09375 -1.703125 -4.859375 -4.703125q-1.75 -3.0 -1.75 -6.890625q0 -3.9375 1.65625 -6.9375q1.65625 -3.0 4.578125 -4.703125q2.9375 -1.703125 6.734375 -1.703125q3.75 0 6.4375 1.65625q2.6875 1.65625 4.09375 4.5625q1.421875 2.90625 1.421875 6.703125q0 0.90625 -0.625 1.515625q-0.625 0.59375 -1.578125 0.59375l-19.34375 0l0 -3.84375l19.1875 0l-1.96875 1.34375q-0.046875 -2.390625 -0.953125 -4.28125q-0.90625 -1.90625 -2.59375 -3.0q-1.671875 -1.109375 -4.078125 -1.109375q-2.734375 0 -4.6875 1.203125q-1.9375 1.1875 -2.953125 3.28125q-1.0 2.078125 -1.0 4.71875q0 2.640625 1.203125 4.703125q1.203125 2.0625 3.3125 3.265625q2.109375 1.203125 4.84375 1.203125q1.484375 0 3.046875 -0.546875q1.5625 -0.5625 2.515625 -1.28125q0.71875 -0.515625 1.5625 -0.546875q0.84375 -0.03125 1.46875 0.5q0.8125 0.71875 0.859375 1.59375q0.046875 0.859375 -0.765625 1.484375q-1.625 1.296875 -4.0625 2.109375q-2.421875 0.8125 -4.625 0.8125zm39.651794 -0.140625q-1.0625 0 -1.765625 -0.6875q-0.6875 -0.703125 -0.6875 -1.765625l0 -11.796875q0 -2.734375 -1.015625 -4.46875q-1.0 -1.734375 -2.703125 -2.5625q-1.703125 -0.84375 -3.90625 -0.84375q-2.015625 0 -3.65625 0.8125q-1.625 0.8125 -2.59375 2.1875q-0.953125 1.359375 -0.953125 3.140625l-3.03125 0q0 -3.015625 1.46875 -5.390625q1.46875 -2.390625 4.0 -3.78125q2.546875 -1.390625 5.71875 -1.390625q3.3125 0 5.921875 1.421875q2.625 1.421875 4.125 4.15625q1.515625 2.734375 1.515625 6.71875l0 11.796875q0 1.0625 -0.703125 1.765625q-0.6875 0.6875 -1.734375 0.6875zm-19.734375 0q-1.046875 0 -1.75 -0.6875q-0.703125 -0.703125 -0.703125 -1.765625l0 -21.40625q0 -1.09375 0.703125 -1.765625q0.703125 -0.671875 1.75 -0.671875q1.109375 0 1.78125 0.671875q0.671875 0.671875 0.671875 1.765625l0 21.40625q0 1.0625 -0.671875 1.765625q-0.671875 0.6875 -1.78125 0.6875zm39.84546 -0.046875q-2.40625 0 -4.328125 -1.21875q-1.921875 -1.234375 -3.03125 -3.34375q-1.09375 -2.109375 -1.09375 -4.75l0 -22.890625q0 -1.0625 0.671875 -1.734375q0.671875 -0.671875 1.734375 -0.671875q1.046875 0 1.71875 0.671875q0.671875 0.671875 0.671875 1.734375l0 22.890625q0 1.921875 1.0625 3.21875q1.0625 1.296875 2.59375 1.296875l1.625 0q0.875 0 1.46875 0.671875q0.59375 0.671875 0.59375 1.71875q0 1.0625 -0.796875 1.734375q-0.78125 0.671875 -2.03125 0.671875l-0.859375 0zm-10.65625 -21.171875q-1.015625 0 -1.640625 -0.5625q-0.625 -0.578125 -0.625 -1.453125q0 -0.953125 0.625 -1.53125q0.625 -0.578125 1.640625 -0.578125l11.078125 0q1.015625 0 1.640625 0.578125q0.625 0.578125 0.625 1.53125q0 0.875 -0.625 1.453125q-0.625 0.5625 -1.640625 0.5625l-11.078125 0zm37.390198 21.171875q-1.0625 0 -1.78125 -0.71875q-0.71875 -0.71875 -0.71875 -1.78125l0 -32.484375q0 -1.109375 0.71875 -1.796875q0.71875 -0.703125 1.78125 -0.703125q1.4375 0 2.203125 1.34375l15.03125 30.09375l-1.546875 0l14.640625 -30.09375q0.78125 -1.34375 2.21875 -1.34375q1.046875 0 1.765625 0.703125q0.734375 0.6875 0.734375 1.796875l0 32.484375q0 1.0625 -0.75 1.78125q-0.75 0.71875 -1.75 0.71875q-1.0625 0 -1.78125 -0.71875q-0.71875 -0.71875 -0.71875 -1.78125l0 -25.578125l0.953125 -0.234375l-12.5625 25.625q-0.828125 1.25 -2.171875 1.25q-1.578125 0 -2.296875 -1.484375l-12.4375 -24.921875l0.96875 -0.234375l0 25.578125q0 1.0625 -0.71875 1.78125q-0.71875 0.71875 -1.78125 0.71875zm55.72986 0q-1.0625 0 -1.78125 -0.71875q-0.71875 -0.71875 -0.71875 -1.78125l0 -34.984375l5.0 0l0 34.984375q0 1.0625 -0.734375 1.78125q-0.71875 0.71875 -1.765625 0.71875zm-12.859375 -32.875q-1.015625 0 -1.671875 -0.640625q-0.640625 -0.65625 -0.640625 -1.671875q0 -1.0 0.640625 -1.640625q0.65625 -0.65625 1.671875 -0.65625l25.671875 0q1.015625 0 1.65625 0.65625q0.65625 0.640625 0.65625 1.640625q0 1.015625 -0.65625 1.671875q-0.640625 0.640625 -1.65625 0.640625l-25.671875 0zm28.169312 32.875q-1.34375 0 -2.0625 -1.140625q-0.71875 -1.15625 -0.140625 -2.453125l13.484375 -32.21875q0.71875 -1.671875 2.34375 -1.671875q1.734375 0 2.359375 1.671875l13.53125 32.3125q0.53125 1.34375 -0.171875 2.421875q-0.6875 1.078125 -2.078125 1.078125q-0.71875 0 -1.375 -0.40625q-0.640625 -0.40625 -0.9375 -1.125l-11.890625 -29.578125l1.34375 0l-12.109375 29.578125q-0.328125 0.765625 -0.984375 1.15625q-0.640625 0.375 -1.3125 0.375zm2.546875 -8.25l1.921875 -4.140625l18.8125 0l1.921875 4.140625l-22.65625 0z" fill-rule="nonzero"/></g></svg>